# xmcd CD database file
#
# Track frame offsets:
#	150
#	51507
#	166291
#
# Disc length: 3257 seconds
#
# Revision: 0
# Processed by: cddbd v1.5.2PL0 Copyright (c) Steve Scherf et al.
# Submitted via: CDex 1.70beta3
#
DISCID=220cb703
DTITLE=The WHO Trio - The WHO Zoo - Acoustic
DYEAR=2014
DGENRE=Jazz
TTITLE0=Chilabreela
TTITLE1=Raccitus
TTITLE2=Whylateakki
EXTD=YEAR: 2014
EXTT0=
EXTT1=
EXTT2=
PLAYORDER=
